<svg width="162" height="148" viewBox="0 0 162 148" fill="none" xmlns="http://www.w3.org/2000/svg">
<path d="M86.9553 103.699C83.5581 99.821 76.5253 110.482 70.959 111.081C58.1539 112.43 52.9546 111.506 46.0887 100.751C39.2227 89.9951 41.2706 97.7806 29.0725 96.5155C23.2552 95.9259 16.2113 93.2117 13.8445 88.024C6.11565 71.2117 27.2451 56.6074 42.6731 53.9095L42.9323 53.8668C46.9372 40.6476 54.3245 31.4813 68.1872 26.0336C75.2788 23.244 83.4747 23.8578 90.0552 25.9165C95.3711 27.583 99.6931 31.0367 102.248 35.6594C106.614 43.5015 102.421 43.4826 110.904 41.6136C127.428 37.9882 142.24 44.7814 146.918 58.9644C149.168 65.7903 148.534 74.8167 144.489 81.646C143.587 83.3864 142.324 84.9649 140.779 86.2802C139.235 87.5955 137.444 88.6183 135.523 89.2825C129.195 91.6592 131.408 93.7242 128.557 98.7084C120.333 113.22 97.0703 115.248 86.9553 103.699Z" fill="#C2FFF0"/>
<path d="M86.6189 99.7325L86.6188 99.7324C86.1661 99.2157 85.6276 98.9183 85.0236 98.8286C84.4342 98.7411 83.8291 98.8582 83.2385 99.0818C82.072 99.5236 80.8036 100.445 79.5434 101.433C79.1951 101.706 78.8463 101.984 78.4972 102.264C77.5547 103.017 76.6093 103.773 75.6634 104.42C74.363 105.31 73.1528 105.927 72.0708 106.044C66.4312 106.638 62.5908 106.713 59.4183 105.525C56.2742 104.349 53.7011 101.896 50.7061 97.2045C49.1996 94.8447 48.1382 93.4272 47.2151 92.659C46.7411 92.2645 46.2806 92.0208 45.7939 91.9174C45.3085 91.8144 44.8457 91.8615 44.388 91.97C43.9965 92.0629 43.5907 92.2032 43.1391 92.3593C41.5545 92.9069 39.4054 93.6497 35.325 93.2266L35.3237 93.2264C32.82 92.9726 30.0573 92.2613 27.6764 91.0634C25.2909 89.8631 23.3389 88.201 22.368 86.0728L22.3673 86.0713C19.1013 78.9668 21.8907 72.2964 27.2944 67.0267C32.7044 61.751 40.6426 57.9924 47.329 56.8225C47.3298 56.8224 47.3307 56.8222 47.3316 56.8221L47.5542 56.7854L47.892 56.7298L47.9913 56.4022C51.4722 44.9125 57.8643 36.9874 69.8904 32.2615L69.8905 32.2614C75.9793 29.8663 83.0558 30.3841 88.7685 32.1713C93.3197 33.598 97.0054 36.5494 99.1811 40.4863L99.182 40.4878C100.123 42.1775 100.599 43.4375 100.902 44.3539C100.978 44.5846 101.043 44.7945 101.103 44.9877L101.114 45.022C101.169 45.2003 101.221 45.3679 101.271 45.5188C101.375 45.8274 101.492 46.134 101.673 46.3753C101.879 46.6492 102.152 46.8202 102.502 46.8852C102.816 46.9434 103.175 46.9129 103.57 46.8483C104.04 46.7713 104.669 46.6246 105.493 46.4322C106.038 46.3049 106.67 46.1575 107.398 45.997C121.739 42.8509 134.444 48.7548 138.45 60.9009C140.383 66.766 139.836 74.5431 136.361 80.4081L136.354 80.4215L136.346 80.4354C135.587 81.9015 134.52 83.2349 133.214 84.3478C131.907 85.4607 130.391 86.3266 128.765 86.8887L128.758 86.8911L128.751 86.8937C127.33 87.4275 126.344 87.9594 125.638 88.5476C124.919 89.1465 124.514 89.7846 124.224 90.4853C124.037 90.9357 123.891 91.4394 123.74 91.9574C123.67 92.1987 123.599 92.443 123.523 92.6864C123.274 93.4808 122.939 94.3777 122.338 95.4303L122.337 95.4321C118.825 101.629 112.078 105.195 105.075 105.952C98.0666 106.711 90.921 104.645 86.6189 99.7325Z" fill="#C2FFF0" stroke="black" stroke-width="1.1"/>
</svg>
