<svg width="113" height="84" viewBox="0 0 113 84" fill="none" xmlns="http://www.w3.org/2000/svg">
<path d="M95.8618 34.5977C105.804 22.4425 94.3165 12.6893 74.9481 16.8417C69.1197 2.69808 51.6845 0.982948 43.2093 13.7194C25.0239 5.87279 11.8532 13.2004 19.2366 27.0599C-0.6539 30.1067 -1.8421 42.1854 17.0734 49.0496C7.13094 61.2048 18.6213 70.9583 37.9871 66.8056C43.8181 80.9495 61.2532 82.6646 69.7258 69.9279C87.9139 77.7748 101.082 70.4469 93.6986 56.5874C113.589 53.546 114.777 41.4673 95.8618 34.5977Z" fill="#3F9672"/>
<path d="M95.8618 34.5977C105.804 22.4425 94.3165 12.6893 74.9481 16.8417C69.1197 2.69808 51.6845 0.982948 43.2093 13.7194C25.0239 5.87279 11.8532 13.2004 19.2366 27.0599C-0.6539 30.1067 -1.8421 42.1854 17.0734 49.0496C7.13094 61.2048 18.6213 70.9583 37.9871 66.8056C43.8181 80.9495 61.2532 82.6646 69.7258 69.9279C87.9139 77.7748 101.082 70.4469 93.6986 56.5874C113.589 53.546 114.777 41.4673 95.8618 34.5977Z" stroke="#26103D"/>
<path d="M93.5956 34.7165L93.2536 35.1346L93.7613 35.319C98.2234 36.9396 101.469 38.857 103.544 40.8465C105.619 42.8364 106.491 44.8645 106.308 46.7304C106.124 48.5963 104.873 50.4149 102.451 51.961C100.028 53.5068 96.4712 54.7531 91.7792 55.4706L91.2449 55.5523L91.499 56.0293C93.2258 59.2708 93.7263 62.0846 93.2913 64.3605C92.8583 66.6256 91.4901 68.4063 89.3735 69.5842C85.1134 71.9549 77.8052 71.8772 69.2147 68.1709L68.9211 68.0443L68.744 68.3105C64.7956 74.2461 58.7777 76.7948 53.0835 76.2346C47.3892 75.6745 41.9827 72.002 39.2653 65.4106L39.1434 65.115L38.8308 65.182C29.6841 67.1434 22.5008 65.7955 18.784 62.6401C16.9374 61.0724 15.9421 59.0592 15.9586 56.7531C15.9752 54.436 17.0143 51.7737 19.3396 48.9308L19.6817 48.5126L19.1738 48.3283C14.7116 46.709 11.4657 44.7925 9.39107 42.8037C7.316 40.8144 6.44366 38.7866 6.62721 36.9207C6.81076 35.0549 8.06151 33.2359 10.4844 31.6891C12.9068 30.1427 16.4639 28.8955 21.1561 28.1767L21.6902 28.0949L21.4362 27.618C19.7094 24.3765 19.209 21.5628 19.6443 19.2869C20.0774 17.0218 21.4459 15.2411 23.5626 14.0633C27.823 11.6926 35.1313 11.7703 43.7205 15.4764L44.014 15.603L44.1911 15.3369C48.1408 9.4013 54.1593 6.85273 59.8536 7.41288C65.5478 7.97304 70.9537 11.6454 73.6699 18.2367L73.7917 18.5323L74.1043 18.4653C83.2523 16.504 90.4356 17.8519 94.1521 21.0073C95.9986 22.5749 96.9936 24.5882 96.9769 26.8942C96.9601 29.2113 95.9209 31.8736 93.5956 34.7165Z" fill="#C1FBE8" stroke="#26103D" stroke-width="0.76608"/>
<path d="M39.6944 47.0065L38.5917 46.898L42.6353 38.5264L43.7209 38.6332L46.0557 47.6322L44.9531 47.5238L43.0769 39.9572L43.009 39.9505L39.6944 47.0065ZM40.4352 43.6538L44.8797 44.091L44.7879 45.024L40.3435 44.5868L40.4352 43.6538ZM47.4085 47.7653L48.2629 39.08L49.2638 39.1784L48.9484 42.3845L49.0332 42.3929C49.1179 42.287 49.2338 42.1528 49.3811 41.9904C49.5315 41.8253 49.7365 41.6856 49.9961 41.5713C50.2588 41.4544 50.6022 41.4168 51.0263 41.4585C51.5748 41.5125 52.0448 41.6972 52.4362 42.0126C52.8277 42.328 53.116 42.7488 53.3012 43.2752C53.4863 43.8015 53.5452 44.4068 53.4779 45.091C53.4101 45.7808 53.2339 46.3673 52.9495 46.8503C52.6653 47.3304 52.3018 47.6886 51.8589 47.9248C51.4163 48.1581 50.9236 48.2481 50.3808 48.1947C49.9624 48.1536 49.6341 48.0513 49.3961 47.8881C49.1584 47.7219 48.9805 47.5431 48.8623 47.3517C48.7444 47.1574 48.6545 46.9972 48.5927 46.8713L48.4739 46.8596L48.3755 47.8604L47.4085 47.7653ZM48.7128 44.6051C48.6644 45.097 48.6938 45.5381 48.801 45.9283C48.9085 46.3157 49.0904 46.6291 49.3466 46.8684C49.6031 47.1048 49.9321 47.2428 50.3335 47.2823C50.752 47.3235 51.112 47.2476 51.4136 47.0546C51.7183 46.859 51.9598 46.5802 52.1381 46.2181C52.3196 45.8534 52.4331 45.4392 52.4787 44.9756C52.5238 44.5175 52.4937 44.0978 52.3885 43.7164C52.2864 43.3324 52.1046 43.019 51.843 42.7763C51.5845 42.5311 51.2432 42.3876 50.8191 42.3459C50.412 42.3059 50.0598 42.3754 49.7624 42.5545C49.4653 42.7308 49.228 42.9958 49.0505 43.3495C48.8732 43.7003 48.7607 44.1188 48.7128 44.6051ZM57.3231 48.8777C56.7351 48.8198 56.2329 48.6291 55.8165 48.3055C55.403 47.9823 55.0966 47.5567 54.8973 47.029C54.7008 46.5016 54.6357 45.9014 54.7019 45.2285C54.7686 44.55 54.9499 43.9698 55.2456 43.4879C55.5442 43.0063 55.9278 42.6472 56.3964 42.4107C56.8678 42.1745 57.3976 42.0853 57.9856 42.1431C58.5737 42.201 59.0745 42.3915 59.488 42.7148C59.9044 43.0384 60.2106 43.4653 60.4068 43.9956C60.6058 44.5261 60.672 45.1307 60.6052 45.8092C60.539 46.4821 60.3568 47.058 60.0585 47.5367C59.763 48.0158 59.3795 48.3734 58.9081 48.6097C58.4395 48.8462 57.9112 48.9355 57.3231 48.8777ZM57.4116 47.9786C57.8583 48.0225 58.2371 47.9442 58.548 47.7435C58.8589 47.5429 59.102 47.2628 59.2772 46.9032C59.4525 46.5437 59.5615 46.1462 59.6044 45.7108C59.6472 45.2754 59.6178 44.8629 59.5163 44.4732C59.4147 44.0835 59.2312 43.7586 58.9656 43.4984C58.7 43.2382 58.3439 43.0861 57.8972 43.0422C57.4505 42.9982 57.0715 43.078 56.7603 43.2815C56.4491 43.4849 56.2058 43.7679 56.0303 44.1303C55.8547 44.4927 55.7456 44.8916 55.7027 45.327C55.6599 45.7624 55.6894 46.1735 55.7912 46.5603C55.893 46.9471 56.0769 47.2692 56.3427 47.5266C56.6086 47.784 56.9649 47.9346 57.4116 47.9786ZM66.1831 46.9232L66.5619 43.0724L67.5628 43.1709L66.922 49.6849L65.9211 49.5864L66.0296 48.4838L65.9617 48.4771C65.7765 48.7929 65.5113 49.0509 65.1662 49.251C64.8214 49.4483 64.403 49.5227 63.9111 49.4743C63.5039 49.4343 63.1508 49.3096 62.8517 49.1004C62.5528 48.8883 62.3307 48.5924 62.1854 48.2127C62.0403 47.8302 61.995 47.3618 62.0495 46.8077L62.4567 42.6686L63.4576 42.767L63.0571 46.8383C63.0103 47.3133 63.106 47.7052 63.3439 48.0141C63.5847 48.3232 63.9129 48.4982 64.3285 48.5391C64.5773 48.5636 64.8366 48.5249 65.1064 48.423C65.379 48.3213 65.6159 48.1477 65.8171 47.902C66.021 47.6566 66.1431 47.3303 66.1831 46.9232ZM72.2288 43.6299L72.1454 44.4781L68.7696 44.146L68.853 43.2978L72.2288 43.6299ZM69.9905 41.834L70.9913 41.9324L70.3806 48.1411C70.3527 48.4238 70.3729 48.6399 70.441 48.7893C70.5121 48.9362 70.6104 49.0401 70.7357 49.1009C70.8642 49.1592 71.0019 49.1956 71.1489 49.2101C71.2592 49.2209 71.3502 49.2242 71.422 49.2198C71.4941 49.2126 71.5517 49.2069 71.595 49.2026L71.7101 50.1217C71.6397 50.1404 71.5425 50.1566 71.4184 50.17C71.2941 50.1864 71.1386 50.1853 70.952 50.167C70.6693 50.1392 70.3982 50.0511 70.1387 49.9029C69.8821 49.7549 69.677 49.5477 69.5233 49.2814C69.3725 49.0153 69.3157 48.6929 69.353 48.314L69.9905 41.834Z" fill="black"/>
</svg>
