<svg width="260" height="257" viewBox="0 0 260 257" fill="none" xmlns="http://www.w3.org/2000/svg">
<path d="M159.219 161.543C142.867 221.985 87.78 223.758 90.0059 163.774C30.1885 158.752 38.5929 104.28 100.562 95.3349C116.913 34.8928 172 33.1195 169.775 93.1036C229.592 98.1254 221.188 152.598 159.219 161.543Z" fill="#FED33D"/>
<path d="M156.236 157.886L156.008 157.919L155.948 158.141C148.608 185.274 132.618 199.087 118.859 199.531C111.992 199.752 105.632 196.652 101.1 190.152C96.5608 183.641 93.8451 173.702 94.3441 160.254L94.3565 159.92L94.0236 159.892C80.6127 158.766 71.0729 154.872 65.1572 149.581C59.2504 144.298 56.9401 137.611 57.9875 130.821C60.0863 117.216 75.7262 103.007 103.545 98.9917L103.773 98.9589L103.833 98.7367C111.173 71.6036 127.163 57.7905 140.922 57.3473C147.788 57.126 154.148 60.2257 158.681 66.7262C163.22 73.2365 165.935 83.176 165.436 96.6242L165.424 96.958L165.757 96.986C179.168 98.1119 188.708 102.006 194.623 107.297C200.53 112.58 202.84 119.267 201.793 126.057C199.694 139.662 184.054 153.87 156.236 157.886Z" fill="#F1FBC1" stroke="black" stroke-width="0.7"/>
<path d="M106.682 138.639L105.604 138.895L106.707 129.663L107.769 129.412L112.902 137.163L111.824 137.419L107.59 130.873L107.524 130.889L106.682 138.639ZM106.293 135.228L110.639 134.196L110.855 135.109L106.51 136.14L106.293 135.228ZM116.528 136.443C115.997 136.569 115.497 136.546 115.027 136.374C114.556 136.2 114.148 135.894 113.802 135.456C113.455 135.016 113.202 134.458 113.041 133.784C112.883 133.115 112.86 132.507 112.972 131.961C113.085 131.414 113.314 130.959 113.66 130.593C114.005 130.228 114.446 129.982 114.982 129.855C115.397 129.756 115.741 129.748 116.014 129.829C116.289 129.907 116.511 130.017 116.68 130.161C116.85 130.302 116.985 130.419 117.083 130.513L117.166 130.493L116.422 127.358L117.401 127.126L119.415 135.618L118.47 135.842L118.238 134.863L118.122 134.891C118.077 135.024 118.01 135.195 117.919 135.403C117.828 135.609 117.676 135.81 117.462 136.007C117.249 136.2 116.937 136.346 116.528 136.443ZM116.452 135.532C116.845 135.439 117.152 135.258 117.374 134.989C117.596 134.718 117.734 134.383 117.788 133.985C117.842 133.584 117.812 133.142 117.698 132.662C117.585 132.186 117.417 131.786 117.194 131.463C116.971 131.136 116.7 130.906 116.382 130.771C116.063 130.633 115.705 130.612 115.307 130.706C114.892 130.805 114.572 130.993 114.346 131.271C114.122 131.546 113.984 131.881 113.932 132.276C113.882 132.668 113.91 133.087 114.016 133.535C114.124 133.988 114.29 134.384 114.517 134.722C114.745 135.056 115.022 135.3 115.347 135.453C115.675 135.603 116.043 135.629 116.452 135.532ZM123.78 134.722C123.249 134.848 122.749 134.825 122.279 134.653C121.808 134.479 121.4 134.173 121.054 133.735C120.707 133.295 120.453 132.738 120.293 132.063C120.135 131.394 120.111 130.787 120.224 130.24C120.337 129.694 120.566 129.238 120.911 128.873C121.257 128.507 121.698 128.261 122.234 128.134C122.649 128.036 122.993 128.027 123.266 128.108C123.541 128.186 123.763 128.297 123.932 128.441C124.102 128.581 124.237 128.698 124.335 128.792L124.418 128.772L123.674 125.638L124.652 125.405L126.667 133.897L125.722 134.121L125.49 133.143L125.374 133.17C125.329 133.303 125.262 133.474 125.171 133.682C125.08 133.888 124.927 134.089 124.714 134.286C124.5 134.48 124.189 134.625 123.78 134.722ZM123.704 133.812C124.096 133.719 124.404 133.538 124.626 133.269C124.848 132.997 124.986 132.662 125.04 132.264C125.094 131.863 125.064 131.422 124.95 130.941C124.837 130.465 124.669 130.066 124.446 129.742C124.223 129.415 123.952 129.185 123.634 129.05C123.315 128.913 122.957 128.891 122.559 128.985C122.144 129.084 121.824 129.272 121.598 129.551C121.374 129.826 121.236 130.161 121.184 130.556C121.134 130.947 121.162 131.367 121.268 131.814C121.375 132.268 121.542 132.663 121.768 133.001C121.997 133.335 122.273 133.579 122.599 133.732C122.926 133.882 123.295 133.909 123.704 133.812ZM136.73 122.539L138.745 131.031L137.75 131.267L131.541 125.698L131.458 125.718L133.04 132.385L132.012 132.629L129.997 124.137L130.992 123.901L137.222 129.483L137.305 129.463L135.719 122.779L136.73 122.539ZM143.372 130.073C142.758 130.219 142.197 130.209 141.687 130.044C141.18 129.875 140.748 129.575 140.392 129.142C140.037 128.707 139.783 128.163 139.628 127.51C139.473 126.858 139.455 126.255 139.575 125.701C139.697 125.144 139.939 124.675 140.301 124.294C140.665 123.909 141.135 123.649 141.71 123.513C142.042 123.434 142.382 123.411 142.732 123.445C143.082 123.479 143.419 123.589 143.743 123.775C144.067 123.958 144.356 124.234 144.609 124.603C144.863 124.972 145.061 125.453 145.202 126.048L145.3 126.462L140.391 127.627L140.191 126.781L144.105 125.853C144.019 125.493 143.871 125.19 143.661 124.942C143.453 124.693 143.198 124.519 142.897 124.418C142.598 124.316 142.272 124.308 141.918 124.392C141.529 124.484 141.214 124.661 140.976 124.922C140.739 125.18 140.581 125.48 140.502 125.823C140.423 126.166 140.425 126.513 140.508 126.864L140.642 127.428C140.756 127.908 140.935 128.297 141.181 128.592C141.428 128.883 141.722 129.081 142.061 129.184C142.401 129.285 142.768 129.288 143.163 129.194C143.42 129.133 143.644 129.042 143.834 128.921C144.027 128.797 144.181 128.643 144.299 128.461C144.415 128.275 144.489 128.062 144.519 127.821L145.527 127.862C145.504 128.207 145.404 128.528 145.226 128.827C145.049 129.124 144.803 129.38 144.49 129.598C144.176 129.812 143.803 129.971 143.372 130.073ZM148.909 128.619L145.457 122.711L146.485 122.467L149.019 127.016L149.085 127.001L149.288 121.802L150.333 121.554L152.829 126.095L152.896 126.079L153.119 120.893L154.148 120.649L153.718 127.478L152.756 127.706L150.202 123.144L150.103 123.168L149.871 128.391L148.909 128.619Z" fill="black"/>
</svg>
