<svg width="95" height="68" viewBox="0 0 95 68" fill="none" xmlns="http://www.w3.org/2000/svg">
<path d="M75.8922 65.7591C73.3255 64.6322 71.0736 63.4798 68.7267 62.5731C61.3377 59.7182 54.1605 59.881 47.3607 64.3523C46.6585 64.814 45.947 65.2633 45.224 65.6915C40.7135 68.3629 39.6818 67.8802 38.5752 62.669C38.2023 60.9129 37.8912 59.1166 37.263 57.4474C35.8937 53.8083 33.1724 52.0714 29.2463 51.8909C24.5013 51.6727 19.9405 52.8999 15.2844 53.3155C7.92952 53.9719 7.39053 53.1394 10.5105 46.6926C11.675 44.2865 12.5874 41.8299 12.2633 39.0773C12.0752 37.4803 11.7578 35.7692 10.2902 35.0159C6.24502 32.9395 4.39498 28.7326 1.10718 25.9458C-0.788267 24.3393 0.336729 23.4926 2.02984 23.2845C3.92727 23.0513 5.87199 23.1971 7.79617 23.1881C12.4229 23.1664 14.6529 21.421 15.7001 16.9547C15.9467 15.9031 16.1144 14.8331 16.3182 13.7716C17.643 6.87263 19.6637 5.49817 25.7084 8.99862C32.1916 12.753 37.2325 11.3495 42.327 6.76643C45.0707 4.29809 47.841 1.7814 51.4333 0.000457764C52.5603 2.10807 52.4896 4.14663 52.2046 6.28332C51.1137 14.4631 54.6777 17.8377 62.8834 16.2473C67.9469 15.266 72.9488 13.9687 77.9862 12.8488C78.9153 12.6422 79.8811 12.5952 80.8319 12.4929C83.5528 12.1997 84.0754 13.3407 82.8184 15.5896C80.8862 19.0469 78.7961 22.4241 77.0273 25.9624C74.2185 31.5814 75.518 34.7211 81.4027 36.8271C84.6764 37.9988 88.0615 38.8613 91.3262 40.0552C94.9118 41.3663 95.13 42.4253 92.2822 44.8551C90.1868 46.6429 87.894 48.2126 85.6117 49.7656C78.8959 54.3354 77.1534 59.5074 81.9247 65.8029C82.2667 66.2542 82.574 66.7845 82.2414 67.5213C80.0505 67.6211 78.1393 66.6078 75.8922 65.7591Z" fill="#D2C2FF"/>
<path d="M45.2421 61.7212L45.4459 62.0654L45.2421 61.7212C44.2465 62.3109 43.4703 62.7094 42.8499 62.9158C42.229 63.1224 41.8263 63.1157 41.5337 62.9822C41.2388 62.8476 40.9608 62.5412 40.6911 61.926C40.4223 61.3129 40.1879 60.4537 39.9435 59.3031C39.8887 59.0448 39.835 58.7837 39.781 58.5207C39.514 57.2211 39.2381 55.8778 38.7635 54.6167C38.1321 52.9389 37.1788 51.6757 35.9106 50.8143C34.6451 49.9548 33.0954 49.5151 31.3012 49.4326C29.1598 49.3341 27.0676 49.5621 25.0085 49.8569C24.4223 49.9409 23.8404 50.0299 23.2607 50.1186C21.7931 50.3431 20.3405 50.5654 18.8711 50.6966C17.2412 50.842 16.0198 50.9016 15.1394 50.8282C14.238 50.7529 13.8184 50.5466 13.6346 50.2887C13.4534 50.0344 13.4009 49.5869 13.6378 48.7423C13.8694 47.9166 14.3434 46.8277 15.0351 45.3986C16.0748 43.2502 16.9272 40.9855 16.6259 38.4271C16.5423 37.717 16.4261 36.9382 16.1513 36.2459C15.873 35.5444 15.4226 34.9081 14.6624 34.5179C12.9448 33.6363 11.681 32.297 10.4655 30.8343C10.2224 30.5417 9.98039 30.243 9.73665 29.9421C8.77605 28.7564 7.78857 27.5376 6.59825 26.5287L6.33961 26.8338L6.59824 26.5287C6.19977 26.1909 5.99865 25.9241 5.91415 25.7304C5.83728 25.5542 5.86215 25.4578 5.90113 25.3911C5.95338 25.3016 6.07761 25.1909 6.31703 25.0889C6.55046 24.9895 6.85505 24.9149 7.2063 24.8717C8.37085 24.7286 9.5416 24.7504 10.7442 24.7728C11.2469 24.7822 11.7551 24.7917 12.2708 24.7893C14.3656 24.7795 15.9879 24.38 17.2093 23.4183C18.4318 22.4558 19.1898 20.9799 19.6646 18.9551L19.2752 18.8638L19.6646 18.9551C19.8169 18.3057 19.937 17.6415 20.055 16.9894C20.1082 16.6955 20.1609 16.4041 20.2159 16.1176C20.5074 14.5996 20.8325 13.4126 21.2303 12.5291C21.6281 11.6456 22.0809 11.1048 22.6057 10.8221C23.1241 10.5428 23.7784 10.4804 24.6571 10.6923C25.5418 10.9056 26.6195 11.3891 27.9463 12.1575C30.8801 13.8564 33.5278 14.4097 36.0402 13.9879C38.5437 13.5677 40.8573 12.1885 43.1455 10.1301L43.2499 10.0361C45.5598 7.95779 47.8594 5.88878 50.7721 4.37413C51.528 6.00581 51.4702 7.60482 51.2372 9.35155C50.7484 13.0169 51.2804 15.747 53.003 17.3602C54.7248 18.9727 57.5003 19.3418 61.1758 18.6295C64.0553 18.0714 66.9211 17.3963 69.7781 16.7233C71.3792 16.3462 72.9776 15.9696 74.574 15.6147L74.4876 15.226L74.5741 15.6147C75.1581 15.4849 75.7502 15.4302 76.3703 15.373C76.5938 15.3523 76.8209 15.3314 77.0526 15.3064L77.0098 14.9094L77.0526 15.3064C77.6326 15.2439 78.062 15.2623 78.3639 15.3362C78.6613 15.409 78.8007 15.5259 78.8683 15.64C78.9388 15.7592 78.9769 15.9524 78.9128 16.2675C78.8486 16.5824 78.6896 16.9788 78.4215 17.4587L78.7706 17.6538L78.4215 17.4587C77.8624 18.459 77.2851 19.4571 76.7062 20.4581C75.5242 22.5018 74.3352 24.5578 73.2795 26.6696C72.0192 29.1908 71.621 31.2667 72.316 32.9818C73.0106 34.696 74.7414 35.9112 77.3809 36.8559C78.7898 37.3601 80.2207 37.7998 81.6413 38.2364L81.7994 38.2849C83.2751 38.7385 84.7391 39.1913 86.1748 39.7164C86.9605 40.0037 87.5326 40.2672 87.9178 40.5253C88.3066 40.7857 88.4475 41.0016 88.4822 41.1748C88.5162 41.3446 88.4706 41.5868 88.2117 41.9556C87.954 42.3227 87.5236 42.7591 86.9 43.2912C85.0616 44.8596 83.0469 46.2394 81.0216 47.6176C78.011 49.6661 76.0434 51.8959 75.4066 54.3834C74.7648 56.8905 75.4995 59.5556 77.6597 62.4058C77.8045 62.5969 77.9096 62.7646 77.9576 62.9378C77.9865 63.0418 77.9974 63.1574 77.9703 63.2934C77.1659 63.2902 76.3924 63.1117 75.5912 62.8425C75.0432 62.6584 74.5088 62.4423 73.9455 62.2145C73.5743 62.0644 73.1906 61.9093 72.7823 61.7549C71.9572 61.3924 71.1598 61.0227 70.3776 60.6599C69.0368 60.0381 67.7403 59.4368 66.4235 58.928C59.7756 56.3595 53.2742 56.4975 47.1202 60.5441C46.5018 60.9507 45.8765 61.3455 45.2421 61.7212Z" fill="#D2C2FF" stroke="black" stroke-width="0.8"/>
</svg>
