<svg width="120" height="108" viewBox="0 0 120 108" fill="none" xmlns="http://www.w3.org/2000/svg">
<path d="M88.27 26.7117L87.9576 27.6942L88.9402 27.3823C95.0628 25.4399 99.7942 26.0273 103.149 27.9618C106.507 29.8988 108.563 33.2304 109.252 36.9286C110.63 44.3385 106.509 53.0682 96.56 54.6604L95.1804 54.8814L96.3553 55.6374C104.779 61.0576 108.989 68.0766 110.026 74.9745C111.064 81.8804 108.929 88.7104 104.574 93.7657C100.223 98.8174 93.6551 102.099 85.8139 101.907C77.9698 101.714 68.7964 98.0432 59.2678 89.079L58.7211 88.5654L58.4143 89.2496C55.15 96.5178 48.8258 99.5092 43.5252 98.9368C40.8727 98.6509 38.4788 97.475 36.8198 95.5005C35.1644 93.5306 34.2066 90.724 34.4981 87.1108L34.5719 86.1942L33.7389 86.5846C28.4286 89.0735 23.8532 89.0104 20.3457 87.3925C16.831 85.7706 14.3119 82.5543 13.186 78.5893C10.9379 70.6715 14.272 59.782 26.4166 53.177L27.5527 52.5589L26.3118 52.1951C18.6067 49.9363 13.6771 47.338 10.921 44.8007C8.1759 42.2735 7.66135 39.8969 8.50653 37.9492C9.38236 35.9307 11.8023 34.1462 15.4367 33.0576C19.0471 31.9761 23.7574 31.6153 29.0356 32.3592L30.4855 32.5634L29.508 31.4736C22.628 23.8027 20.5845 17.6316 21.4605 13.1483C22.3294 8.70111 26.125 5.68485 31.5043 4.42699C42.2793 1.90742 58.911 6.60652 68.4125 20.4135L68.9191 21.1502L69.3277 20.3545C72.4309 14.3099 78.2367 12.6627 82.7123 14.1182C84.9539 14.8471 86.8586 16.3516 87.9471 18.4754C89.0322 20.5939 89.3301 23.3775 88.27 26.7117Z" fill="#FF90E8"/>
<path d="M88.27 26.7117L87.9576 27.6942L88.9402 27.3823C95.0628 25.4399 99.7942 26.0273 103.149 27.9618C106.507 29.8988 108.563 33.2304 109.252 36.9286C110.63 44.3385 106.509 53.0682 96.56 54.6604L95.1804 54.8814L96.3553 55.6374C104.779 61.0576 108.989 68.0766 110.026 74.9745C111.064 81.8804 108.929 88.7104 104.574 93.7657C100.223 98.8174 93.6551 102.099 85.8139 101.907C77.9698 101.714 68.7964 98.0432 59.2678 89.079L58.7211 88.5654L58.4143 89.2496C55.15 96.5178 48.8258 99.5092 43.5252 98.9368C40.8727 98.6509 38.4788 97.475 36.8198 95.5005C35.1644 93.5306 34.2066 90.724 34.4981 87.1108L34.5719 86.1942L33.7389 86.5846C28.4286 89.0735 23.8532 89.0104 20.3457 87.3925C16.831 85.7706 14.3119 82.5543 13.186 78.5893C10.9379 70.6715 14.272 59.782 26.4166 53.177L27.5527 52.5589L26.3118 52.1951C18.6067 49.9363 13.6771 47.338 10.921 44.8007C8.1759 42.2735 7.66135 39.8969 8.50653 37.9492C9.38236 35.9307 11.8023 34.1462 15.4367 33.0576C19.0471 31.9761 23.7574 31.6153 29.0356 32.3592L30.4855 32.5634L29.508 31.4736C22.628 23.8027 20.5845 17.6316 21.4605 13.1483C22.3294 8.70111 26.125 5.68485 31.5043 4.42699C42.2793 1.90742 58.911 6.60652 68.4125 20.4135L68.9191 21.1502L69.3277 20.3545C72.4309 14.3099 78.2367 12.6627 82.7123 14.1182C84.9539 14.8471 86.8586 16.3516 87.9471 18.4754C89.0322 20.5939 89.3301 23.3775 88.27 26.7117Z" stroke="black"/>
<path d="M85.0124 29.9523L84.7631 30.7362L85.5471 30.4873L86.4404 30.2038C86.4404 30.2038 86.4404 30.2038 86.4404 30.2038C91.9213 28.465 96.0933 29.0084 99.0155 30.6936C101.945 32.3832 103.751 35.2955 104.358 38.5542C105.575 45.0943 101.942 52.7719 93.1714 54.1755L93.1713 54.1755L91.9171 54.3764L90.8175 54.5526L91.754 55.1552L92.8221 55.8424C100.389 60.7111 104.137 66.9903 105.059 73.1268C105.984 79.2779 104.082 85.3633 100.202 89.8683C96.3268 94.367 90.4769 97.2934 83.4799 97.1216C76.4784 96.9499 68.2346 93.6718 59.6285 85.5755L59.6283 85.5753L59.1314 85.1084L58.6957 84.699L58.451 85.2445L58.1722 85.8663C58.1722 85.8664 58.1721 85.8664 58.1721 85.8665C55.2749 92.3173 49.6938 94.923 45.0709 94.4239L45.0708 94.4238C42.756 94.1743 40.6851 93.1509 39.2555 91.4495L38.9294 91.7235L39.2555 91.4494C37.832 89.7555 36.9861 87.3189 37.2433 84.1307L36.8187 84.0965L37.2433 84.1307L37.3104 83.2974L37.3694 82.5663L36.7051 82.8775L35.9479 83.2324L36.1286 83.6181L35.9478 83.2324C31.2114 85.4523 27.1851 85.3743 24.1314 83.9657C21.0654 82.5509 18.8487 79.7366 17.8539 76.2332C15.8704 69.2475 18.7903 59.5417 29.6754 53.6217L29.6755 53.6217L30.7083 53.0598L31.614 52.567L30.6246 52.2769L29.4965 51.9461L29.3767 52.3549L29.4965 51.9461C22.5185 49.9004 18.1093 47.5617 15.6735 45.3193C13.2573 43.0949 12.9101 41.1193 13.5808 39.5737L13.1902 39.4041L13.5808 39.5736C14.3036 37.9077 16.3579 36.34 19.6124 35.3652C22.8263 34.4025 27.0453 34.0748 31.7934 34.744L33.1115 34.9297L34.2675 35.0925L33.488 34.2235L32.5994 33.2327C26.3763 26.2943 24.6266 20.8178 25.3844 16.9395C26.1302 13.1224 29.3959 10.466 34.1941 9.34406L34.0972 8.92932L34.1941 9.34406C43.8191 7.0934 58.761 11.2969 67.2991 23.7039C67.2991 23.7039 67.2991 23.704 67.2992 23.704L67.7596 24.3736L68.1636 24.9611L68.4894 24.3268L68.8609 23.6035L68.861 23.6034C71.5862 18.2951 76.6474 16.8857 80.5181 18.1446L80.6496 17.7404L80.5181 18.1446C82.4599 18.776 84.0965 20.0741 85.0296 21.8947C85.9577 23.7067 86.2312 26.119 85.2964 29.0591L85.0124 29.9523ZM36.8465 83.752L37.0666 83.6489L36.8859 83.2632L36.4613 83.229L36.4418 83.4713L36.8465 83.752Z" fill="#C1D4FB" stroke="black" stroke-width="0.851867"/>
<path d="M38.6263 51.2157L41.4537 44.122L43.8506 45.0774C44.4071 45.2992 44.8219 45.581 45.0951 45.9227C45.3716 46.263 45.5276 46.6369 45.5632 47.0445C45.5988 47.452 45.5333 47.8648 45.3667 48.2828C45.2001 48.7007 44.9632 49.0465 44.6561 49.3201C44.3514 49.5947 43.9818 49.7632 43.5475 49.8256C43.1142 49.8856 42.6215 49.8057 42.0697 49.5857L40.3517 48.9009L40.6554 48.1389L42.3457 48.8127C42.7267 48.9645 43.0589 49.0207 43.3423 48.9811C43.6256 48.9415 43.8639 48.8304 44.0571 48.6479C44.2535 48.4639 44.4083 48.2299 44.5215 47.9459C44.6347 47.6619 44.6829 47.3867 44.6659 47.1204C44.6513 46.855 44.5527 46.6123 44.3701 46.3923C44.1884 46.1701 43.9047 45.9821 43.5191 45.8284L42.009 45.2264L39.4853 51.5581L38.6263 51.2157ZM44.7068 53.6393L46.8273 48.3191L47.6171 48.6338L47.2968 49.4374L47.3522 49.4595C47.5541 49.2349 47.8147 49.0913 48.1341 49.0286C48.4534 48.9658 48.7724 48.998 49.0911 49.125C49.1511 49.1489 49.2257 49.18 49.3148 49.2182C49.404 49.2564 49.4707 49.287 49.5151 49.3101L49.1837 50.1414C49.1588 50.1234 49.0994 50.0877 49.0056 50.0342C48.9151 49.9794 48.8156 49.9304 48.707 49.8871C48.4484 49.784 48.1959 49.7463 47.9494 49.7738C47.7062 49.8 47.488 49.8842 47.2947 50.0266C47.1047 50.1677 46.9618 50.3582 46.8661 50.5984L45.5242 53.9651L44.7068 53.6393ZM50.2911 55.9936C49.8108 55.8021 49.4349 55.5198 49.1635 55.1467C48.8944 54.7746 48.7402 54.3425 48.7008 53.8504C48.6637 53.3593 48.7547 52.839 48.9738 52.2894C49.1947 51.7352 49.4879 51.2915 49.8536 50.9583C50.2215 50.6259 50.6312 50.4172 51.0825 50.3322C51.5362 50.2481 52.0031 50.3018 52.4834 50.4932C52.9637 50.6847 53.3384 50.9665 53.6076 51.3387C53.879 51.7118 54.0327 52.145 54.0689 52.6384C54.1073 53.1328 54.0161 53.657 53.7952 54.2112C53.5762 54.7608 53.2831 55.2006 52.9161 55.5306C52.5514 55.8616 52.1422 56.0691 51.6885 56.1532C51.2372 56.2382 50.7714 56.185 50.2911 55.9936ZM50.5838 55.2593C50.9486 55.4047 51.2861 55.4308 51.5962 55.3377C51.9062 55.2445 52.1786 55.0681 52.4132 54.8084C52.6479 54.5486 52.8361 54.241 52.9778 53.8854C53.1195 53.5298 53.195 53.1759 53.2043 52.8237C53.2136 52.4714 53.1382 52.1537 52.9781 51.8705C52.8181 51.5873 52.5556 51.3729 52.1908 51.2275C51.8259 51.0821 51.488 51.0571 51.177 51.1526C50.866 51.2481 50.5927 51.4268 50.3572 51.6888C50.1216 51.9508 49.9329 52.2596 49.7912 52.6153C49.6495 52.9709 49.5744 53.3236 49.5661 53.6735C49.5577 54.0234 49.6341 54.3388 49.795 54.6198C49.956 54.9007 50.2189 55.1138 50.5838 55.2593ZM55.9585 58.2525C55.5152 58.0758 55.1684 57.8078 54.9183 57.4485C54.669 57.087 54.5305 56.6624 54.5027 56.175C54.4758 55.6853 54.5746 55.1587 54.7992 54.5953C55.0219 54.0365 55.311 53.5898 55.6665 53.2551C56.022 52.9205 56.4152 52.7093 56.8463 52.6215C57.2773 52.5338 57.7168 52.5792 58.1648 52.7577C58.5111 52.8958 58.7618 53.0626 58.9166 53.2581C59.0747 53.4522 59.1779 53.6432 59.2261 53.831C59.2776 54.0175 59.3149 54.1688 59.3382 54.2851L59.4074 54.3127L60.4512 51.6942L61.2686 52.02L58.4412 59.1136L57.6514 58.7989L57.9773 57.9814L57.8803 57.9428C57.7816 58.0158 57.6474 58.1042 57.4776 58.2078C57.3088 58.3091 57.0986 58.3765 56.8471 58.41C56.5965 58.4412 56.3003 58.3888 55.9585 58.2525ZM56.3621 57.5624C56.69 57.6931 57.0011 57.7181 57.2955 57.6374C57.5908 57.5545 57.8581 57.384 58.0974 57.1262C58.3376 56.866 58.5377 56.535 58.6979 56.1332C58.8562 55.736 58.937 55.3655 58.9402 55.0216C58.9444 54.6754 58.8665 54.3741 58.7065 54.1176C58.5474 53.8589 58.3016 53.6632 57.9691 53.5307C57.6227 53.3926 57.2986 53.3665 56.9968 53.4522C56.6983 53.5366 56.431 53.707 56.195 53.9635C55.9622 54.2186 55.7712 54.5332 55.6221 54.9073C55.4712 55.286 55.3918 55.653 55.3839 56.0085C55.3792 56.3625 55.4549 56.6763 55.6108 56.9499C55.7699 57.222 56.0203 57.4262 56.3621 57.5624ZM64.2716 58.9168L65.5252 55.7718L66.3426 56.0976L64.2221 61.4178L63.4046 61.092L63.7636 60.1914L63.7082 60.1694C63.4758 60.3898 63.1902 60.5423 62.8515 60.6267C62.5137 60.7088 62.1439 60.6698 61.7422 60.5096C61.4096 60.3771 61.1431 60.1866 60.9424 59.938C60.7427 59.6871 60.6279 59.3845 60.5979 59.03C60.5688 58.6732 60.6445 58.2685 60.8249 57.8159L62.1724 54.4354L62.9898 54.7612L61.6644 58.0863C61.5098 58.4743 61.495 58.8269 61.62 59.1444C61.7473 59.4627 61.9807 59.6895 62.3202 59.8248C62.5234 59.9058 62.7508 59.9363 63.0023 59.9161C63.2562 59.8969 63.4975 59.8084 63.7262 59.6507C63.9573 59.494 64.1391 59.2493 64.2716 58.9168ZM67.8364 62.9869C67.3376 62.7881 66.9551 62.4991 66.6887 62.12C66.4224 61.7409 66.2746 61.306 66.2454 60.8154C66.2162 60.3247 66.3074 59.8139 66.5191 59.2828C66.7345 58.7424 67.0238 58.3052 67.3872 57.971C67.7537 57.6354 68.1624 57.4224 68.6133 57.3318C69.0674 57.2398 69.5346 57.2896 70.0149 57.481C70.389 57.6301 70.6985 57.8338 70.9435 58.092C71.1884 58.3502 71.3571 58.6422 71.4493 58.9679C71.5416 59.2937 71.5445 59.6321 71.4582 59.983L70.6407 59.6572C70.675 59.3899 70.6221 59.1199 70.4819 58.8473C70.3449 58.5732 70.0963 58.3644 69.7361 58.2209C69.4174 58.0938 69.1049 58.0656 68.7985 58.1361C68.4953 58.2053 68.2169 58.3633 67.9633 58.6101C67.713 58.8555 67.5077 59.1791 67.3476 59.5809C67.1837 59.9919 67.1057 60.3756 67.1136 60.7319C67.1237 61.0892 67.2141 61.3995 67.3847 61.6629C67.5577 61.9272 67.8058 62.1237 68.1291 62.2526C68.3415 62.3373 68.5491 62.3772 68.7517 62.3723C68.9543 62.3674 69.1433 62.3197 69.3186 62.229C69.4939 62.1383 69.6456 62.0061 69.7737 61.8324L70.5912 62.1582C70.4198 62.4538 70.1928 62.6911 69.91 62.8701C69.6305 63.0477 69.3123 63.151 68.9556 63.1801C68.602 63.2078 68.229 63.1434 67.8364 62.9869ZM75.6019 59.7882L75.3258 60.481L72.5687 59.382L72.8448 58.6893L75.6019 59.7882ZM74.1565 57.7349L74.9739 58.0608L72.9527 63.1316C72.8607 63.3625 72.8252 63.549 72.8461 63.6912C72.8703 63.8319 72.9276 63.9431 73.0182 64.0247C73.112 64.1049 73.219 64.169 73.339 64.2168C73.4291 64.2527 73.5048 64.2775 73.5662 64.2913C73.6286 64.3028 73.6784 64.312 73.7158 64.3188L73.5894 65.1194C73.5257 65.1181 73.4401 65.108 73.3325 65.0892C73.224 65.0728 73.0935 65.0341 72.9411 64.9734C72.7102 64.8814 72.5037 64.7415 72.3216 64.5539C72.1418 64.3671 72.0197 64.1432 71.9552 63.882C71.893 63.6217 71.9236 63.3369 72.047 63.0275L74.1565 57.7349ZM80.0299 62.9339L79.2127 62.8491C79.2153 62.7083 79.1946 62.5622 79.1506 62.4109C79.1098 62.2581 79.0284 62.1133 78.9063 61.9763C78.7843 61.8394 78.6044 61.7235 78.3665 61.6287C78.0409 61.4989 77.7397 61.4658 77.4628 61.5294C77.1892 61.5916 77.0068 61.737 76.9157 61.9656C76.8347 62.1688 76.8446 62.3588 76.9454 62.5354C77.0463 62.7121 77.2381 62.9023 77.5208 63.106L78.2332 63.6147C78.6629 63.9197 78.9469 64.2377 79.0854 64.5685C79.2247 64.897 79.2203 65.2471 79.0721 65.6189C78.9506 65.9237 78.7543 66.1612 78.483 66.3314C78.2141 66.5025 77.8962 66.5952 77.5293 66.6095C77.1623 66.6238 76.7722 66.5486 76.3588 66.3838C75.8162 66.1675 75.414 65.8707 75.1523 65.4935C74.8905 65.1162 74.8025 64.6824 74.8883 64.1921L75.7414 64.3074C75.7012 64.6231 75.7553 64.8936 75.9038 65.1187C76.0545 65.3447 76.2973 65.5244 76.6321 65.6578C77.0131 65.8097 77.3478 65.8495 77.6363 65.7771C77.9279 65.7033 78.1193 65.5522 78.2104 65.3236C78.284 65.1388 78.281 64.9584 78.2014 64.7821C78.1227 64.6036 77.9619 64.4297 77.7189 64.2606L76.915 63.6994C76.4738 63.3897 76.1872 63.0681 76.0553 62.7345C75.9265 62.3996 75.9353 62.0485 76.0817 61.6814C76.2013 61.3812 76.3914 61.1492 76.652 60.9855C76.915 60.8227 77.2193 60.7339 77.565 60.7192C77.913 60.7054 78.2741 60.773 78.6482 60.9221C79.1746 61.132 79.542 61.4122 79.7501 61.7627C79.9606 62.1142 80.0538 62.5046 80.0299 62.9339Z" fill="black"/>
</svg>
