<svg width="116" height="85" viewBox="0 0 116 85" fill="none" xmlns="http://www.w3.org/2000/svg">
<path d="M90.1482 49.5239C116.466 56.7654 117.819 20.6688 101.686 8.98623C96.6592 5.36051 87.5259 2.16273 81.5949 4.38027C75.6628 6.60039 72.8407 12.5059 72.8407 12.5059C72.8407 12.5059 66.2429 1.68854 54.7589 4.73418C50.1753 5.95212 45.0552 10.8735 44.7255 15.31C44.5532 17.4364 43.6863 21.3067 43.6863 21.3067C43.6863 21.3067 39.3521 18.3284 37.2942 16.6647C32.8625 13.0856 28.0963 10.2362 22.6004 11.1521C13.2669 12.7566 6.99167 21.0555 4.70543 28.0911C0.558045 40.7216 3.09499 57.3578 11.7195 68.2453C18.8135 77.2862 26.1599 84.5703 37.7939 81.56C43.248 80.1312 45.6242 79.6554 50.017 73.0583C50.4112 72.4638 51.8547 65.9642 51.7357 61.4692C51.7093 61.1438 58.6018 65.8851 59.6295 66.4115C64.0605 68.772 68.9547 69.5461 75.2374 68.0037C81.7602 66.3929 92.5103 58.5736 90.1482 49.5239Z" fill="#F0FFC2"/>
<path d="M45.1465 22.4515L45.6344 22.5608L45.6344 22.5606L45.6346 22.5601L45.635 22.558L45.6368 22.5502L45.6434 22.5202L45.6687 22.4053C45.6905 22.3057 45.7217 22.1615 45.7596 21.9827C45.8354 21.625 45.9381 21.1282 46.0458 20.571C46.2597 19.4636 46.4978 18.0942 46.5776 17.1099L46.5778 17.1065C46.7136 15.2791 47.8506 13.2843 49.5075 11.5898C51.1587 9.90112 53.2604 8.57954 55.2127 8.06079C60.1753 6.74474 64.0767 8.41626 66.7628 10.4395C68.1082 11.4528 69.1427 12.5511 69.8409 13.3968C70.1896 13.8191 70.4532 14.177 70.6286 14.4276C70.7163 14.5529 70.7818 14.6512 70.8248 14.7173C70.8464 14.7503 70.8622 14.7753 70.8724 14.7915L70.8835 14.8091L70.8858 14.8129L70.8859 14.8131L70.8861 14.8134L70.8861 14.8134L71.3662 15.6006L71.7638 14.7687L71.7638 14.7686L71.7639 14.7683L71.7646 14.7669L71.769 14.7579L71.7889 14.7181C71.807 14.6822 71.835 14.6278 71.8729 14.5571C71.9486 14.4155 72.0639 14.2086 72.2191 13.953C72.5298 13.4414 72.9991 12.7369 73.6304 11.9718C74.8962 10.4375 76.7932 8.68323 79.345 7.7282C81.8665 6.7855 85.1274 6.97983 88.361 7.8433C91.584 8.70394 94.7048 10.2096 96.9083 11.7989C103.964 16.908 107.24 27.4212 105.819 35.8715C105.11 40.0826 103.246 43.7129 100.175 45.901C97.1174 48.0803 92.777 48.8899 86.9791 47.2945L86.1438 47.0647L86.3626 47.9029C87.3597 51.7229 85.6064 55.3351 82.7876 58.224C79.9699 61.1118 76.1753 63.1778 73.344 63.8769C67.8184 65.2334 63.553 64.5495 59.6908 62.4921L59.6908 62.492L59.6836 62.4883C59.4818 62.385 58.9491 62.0487 58.2286 61.5806C57.7757 61.2864 57.2625 60.9493 56.7339 60.6021C56.4356 60.4062 56.1325 60.2071 55.8325 60.0106C55.0034 59.4676 54.1984 58.9449 53.6011 58.5758C53.3043 58.3923 53.049 58.2408 52.8647 58.1431C52.7778 58.0971 52.6829 58.0502 52.5994 58.0214L52.5984 58.021C52.5693 58.011 52.4758 57.9788 52.3641 57.9838C52.3064 57.9864 52.1652 58.0019 52.0384 58.1169C51.9015 58.2411 51.8683 58.3989 51.8711 58.5108C51.9232 60.4795 51.6322 62.9089 51.2798 64.9249C51.1041 65.93 50.9146 66.8238 50.7483 67.4958C50.665 67.8324 50.5886 68.1087 50.5239 68.3135C50.4514 68.5427 50.4108 68.624 50.4117 68.6227C48.4578 71.5568 46.9872 73.0753 45.4385 74.0277C43.9508 74.9425 42.36 75.3584 40.0743 75.9559C39.9619 75.9853 39.8478 76.0151 39.732 76.0454C34.6527 77.3595 30.5333 76.4293 26.8914 74.1846C23.2235 71.9239 20.0296 68.3235 16.8494 64.2706L16.848 64.2688C9.21629 54.6346 6.96374 39.88 10.636 28.6966L10.6364 28.6951C12.6551 22.4829 18.1781 15.2285 26.3051 13.8307C31.0072 13.0475 35.1312 15.4727 39.0954 18.6743C40.0324 19.4317 41.4781 20.4813 42.681 21.336C43.2844 21.7646 43.8297 22.1463 44.2242 22.4209C44.4214 22.5582 44.5811 22.6688 44.6914 22.7451L44.8186 22.8329L44.8518 22.8557L44.8604 22.8616L44.8625 22.8631L44.8631 22.8635L44.8632 22.8636L45.1465 22.4515ZM45.1465 22.4515L45.6344 22.5608L45.4728 23.2824L44.8633 22.8636L45.1465 22.4515Z" fill="#F0FFC2" stroke="black"/>
</svg>
