<svg width="126" height="124" viewBox="0 0 126 124" fill="none" xmlns="http://www.w3.org/2000/svg">
<path d="M40.1403 54.287L48.6238 18.5724C48.7441 18.0729 49.0015 17.6084 49.3685 17.2281C49.7356 16.8479 50.1986 16.566 50.7086 16.4125C51.2185 16.2589 51.7564 16.2394 52.265 16.356C52.7737 16.4726 53.2342 16.721 53.5979 17.0747C62.7855 26.0769 77.4044 40.275 78.9949 40.7926C80.3046 41.2168 93.3665 40.1734 103.057 39.3343C103.631 39.2845 104.2 39.3975 104.693 39.6593C105.187 39.9211 105.583 40.3201 105.833 40.8066C106.083 41.2932 106.176 41.8458 106.1 42.3959C106.024 42.946 105.782 43.4691 105.405 43.9003C98.7438 51.5168 89.8629 61.8323 89.718 62.972C89.5836 64.0449 97.1161 80.6201 102.319 91.9472C102.546 92.4384 102.616 92.9883 102.521 93.5301C102.426 94.0718 102.171 94.5821 101.786 94.9987C101.401 95.4153 100.904 95.7204 100.354 95.8767C99.8038 96.0331 99.225 96.034 98.6881 95.8794C89.5765 93.2291 80.8455 89.5913 72.6586 85.034C72.0391 84.685 71.2967 84.5768 70.5768 84.7306C69.8568 84.8844 69.2112 85.2891 68.7663 85.8655C62.0543 94.586 54.5527 102.731 46.3551 110.197C45.9473 110.567 45.4443 110.824 44.9036 110.937C44.3628 111.051 43.8062 111.017 43.2974 110.839C42.7885 110.661 42.348 110.347 42.0262 109.933C41.7044 109.518 41.5142 109.019 41.4775 108.494L39.792 84.8416C39.7596 84.3873 39.6126 83.952 39.3636 83.5732C39.1145 83.1944 38.7709 82.8835 38.3623 82.6672L14.4689 70.0758C13.985 69.8223 13.5928 69.4372 13.339 68.9664C13.0853 68.4955 12.9806 67.9586 13.0374 67.4196C13.0942 66.8805 13.3101 66.362 13.6595 65.9257C14.0088 65.4894 14.4769 65.1536 15.0081 64.9583L38.2274 56.3892C38.6992 56.2172 39.1225 55.9338 39.4573 55.5659C39.7921 55.198 40.0272 54.7578 40.1403 54.287Z" fill="#5C59ED"/>
<path d="M40.1403 54.287L48.6238 18.5724C48.7441 18.0729 49.0015 17.6084 49.3685 17.2281C49.7356 16.8479 50.1986 16.566 50.7086 16.4125C51.2185 16.2589 51.7564 16.2394 52.265 16.356C52.7737 16.4726 53.2342 16.721 53.5979 17.0747C62.7855 26.0769 77.4044 40.275 78.9949 40.7926C80.3046 41.2168 93.3665 40.1734 103.057 39.3343C103.631 39.2845 104.2 39.3975 104.693 39.6593C105.187 39.9211 105.583 40.3201 105.833 40.8066C106.083 41.2932 106.176 41.8458 106.1 42.3959C106.024 42.946 105.782 43.4691 105.405 43.9003C98.7438 51.5168 89.8629 61.8323 89.718 62.972C89.5836 64.0449 97.1161 80.6201 102.319 91.9472C102.546 92.4384 102.616 92.9883 102.521 93.5301C102.426 94.0718 102.171 94.5821 101.786 94.9987C101.401 95.4153 100.904 95.7204 100.354 95.8767C99.8038 96.0331 99.225 96.034 98.6881 95.8794C89.5765 93.2291 80.8455 89.5913 72.6586 85.034C72.0391 84.685 71.2967 84.5768 70.5768 84.7306C69.8568 84.8844 69.2112 85.2891 68.7663 85.8655C62.0543 94.586 54.5527 102.731 46.3551 110.197C45.9473 110.567 45.4443 110.824 44.9036 110.937C44.3628 111.051 43.8062 111.017 43.2974 110.839C42.7885 110.661 42.348 110.347 42.0262 109.933C41.7044 109.518 41.5142 109.019 41.4775 108.494L39.792 84.8416C39.7596 84.3873 39.6126 83.952 39.3636 83.5732C39.1145 83.1944 38.7709 82.8835 38.3623 82.6672L14.4689 70.0758C13.985 69.8223 13.5928 69.4372 13.339 68.9664C13.0853 68.4955 12.9806 67.9586 13.0374 67.4196C13.0942 66.8805 13.3101 66.362 13.6595 65.9257C14.0088 65.4894 14.4769 65.1536 15.0081 64.9583L38.2274 56.3892C38.6992 56.2172 39.1225 55.9338 39.4573 55.5659C39.7921 55.198 40.0272 54.7578 40.1403 54.287Z" stroke="#26103D"/>
<path d="M43.2825 55.3453L43.2828 55.344L50.8237 23.9053C50.8237 23.9051 50.8238 23.9049 50.8238 23.9046C50.909 23.5551 51.0914 23.2254 51.3554 22.9527C51.6197 22.6798 51.9541 22.4762 52.3229 22.3649C52.6917 22.2537 53.0779 22.2398 53.4398 22.3219C53.8011 22.4039 54.1234 22.5781 54.3753 22.8222C58.4237 26.7764 63.6706 31.8735 68.0817 36.0395C70.2869 38.1221 72.2864 39.9751 73.824 41.3371C74.5923 42.0175 75.2499 42.5795 75.7624 42.9875C76.0183 43.1911 76.2434 43.3607 76.4313 43.4888C76.6049 43.6071 76.7903 43.7208 76.9539 43.7737L76.9546 43.7739C77.083 43.8152 77.2425 43.8368 77.3991 43.8507C77.5651 43.8655 77.7652 43.8744 77.9927 43.8788C78.4484 43.8875 79.0372 43.878 79.7295 43.8542C81.1153 43.8064 82.9391 43.7001 84.9893 43.5589C89.0909 43.2765 94.1163 42.8536 98.3946 42.4771L98.3948 42.4771C98.8076 42.4407 99.212 42.5216 99.5585 42.7044C99.9045 42.8869 100.178 43.1633 100.35 43.497C100.522 43.8306 100.586 44.2116 100.532 44.5945C100.478 44.9779 100.308 45.3482 100.037 45.657L100.037 45.657C97.0908 49.0137 93.6515 52.9678 90.9317 56.2093C89.5723 57.8294 88.3889 59.2758 87.5359 60.3824C87.11 60.9348 86.7615 61.4089 86.5134 61.7807C86.3897 61.9661 86.286 62.1334 86.2091 62.2769C86.142 62.4021 86.062 62.5679 86.041 62.7307L86.0409 62.7316C86.0276 62.8358 86.0406 62.9373 86.0518 63.005C86.0646 63.0828 86.0844 63.1684 86.1083 63.2577C86.1561 63.4368 86.2281 63.6604 86.3192 63.9197C86.5019 64.4399 86.7724 65.1346 87.1113 65.9646C87.7896 67.6262 88.7517 69.853 89.8588 72.3575C92.0733 77.3677 94.8747 83.504 97.1628 88.4841L97.163 88.4845C97.3181 88.8213 97.3668 89.2008 97.3 89.5785C97.2331 89.9567 97.0527 90.3185 96.7759 90.6172C96.499 90.9161 96.1397 91.1364 95.7418 91.2498C95.344 91.3631 94.929 91.3635 94.548 91.2547C86.546 88.9465 78.8807 85.7731 71.6953 81.7941C71.0379 81.426 70.2574 81.3168 69.5073 81.4778C68.7569 81.6388 68.0821 82.0602 67.6149 82.6632L67.6144 82.6637C61.6952 90.3239 55.0818 97.4802 47.8567 104.043C47.5626 104.309 47.1993 104.494 46.8089 104.577C46.4185 104.659 46.0203 104.634 45.6604 104.51C45.3007 104.385 44.9942 104.166 44.7724 103.88C44.5508 103.595 44.42 103.253 44.3953 102.891L44.3952 102.89L42.9426 82.0789L42.4398 82.114L42.9426 82.0788C42.9087 81.5933 42.7517 81.127 42.4845 80.7213C42.2174 80.3157 41.8498 79.9853 41.416 79.7568L41.4151 79.7563L20.3436 68.7118L20.3425 68.7112C20.003 68.5343 19.7318 68.2674 19.5576 67.9444C19.3834 67.6214 19.3109 67.2515 19.3512 66.8768C19.3914 66.5016 19.5434 66.1352 19.7942 65.8233C20.0451 65.5111 20.3828 65.2687 20.7673 65.1272L20.7679 65.127L41.2739 57.5526C41.2742 57.5525 41.2745 57.5524 41.2748 57.5523C41.7666 57.3726 42.2089 57.0773 42.5601 56.6927C42.9115 56.3078 43.1614 55.8446 43.2825 55.3453Z" fill="#CBC1FB" stroke="#26103D" stroke-width="1.008"/>
<path d="M46.5166 74.2065L40.8084 67.1868L41.7908 66.753L46.3303 72.5186L46.4083 72.4842L45.2368 65.2314L46.3283 64.7495L50.8991 70.5013L50.977 70.4669L49.7744 63.2279L50.7568 62.7941L52.0989 71.7417L51.1009 72.1823L46.5298 66.5984L46.4674 66.6259L47.5145 73.7659L46.5166 74.2065ZM55.3617 70.3009L52.7179 64.3132L53.6379 63.907L56.2817 69.8947L55.3617 70.3009ZM52.745 63.1087C52.5657 63.1879 52.3841 63.1951 52.2002 63.1303C52.0189 63.0644 51.8904 62.9457 51.8147 62.7742C51.739 62.6026 51.7378 62.4277 51.8112 62.2493C51.8872 62.0698 52.0149 61.9404 52.1942 61.8613C52.3735 61.7821 52.5538 61.7755 52.7351 61.8414C52.919 61.9061 53.0488 62.0243 53.1245 62.1958C53.2003 62.3673 53.2001 62.5429 53.1241 62.7224C53.0507 62.9008 52.9243 63.0295 52.745 63.1087ZM60.1563 62.6312L59.4332 63.23C59.3204 63.1152 59.1846 63.0153 59.0259 62.9301C58.8686 62.8411 58.6852 62.7917 58.4759 62.7816C58.2665 62.7716 58.0279 62.8257 57.7602 62.9439C57.3938 63.1057 57.1257 63.325 56.956 63.6018C56.7878 63.8748 56.7605 64.14 56.8741 64.3973C56.9751 64.626 57.138 64.7699 57.3628 64.829C57.5877 64.8881 57.8963 64.8838 58.2888 64.8161L59.274 64.6419C59.8667 64.5355 60.3534 64.5581 60.7341 64.7099C61.1136 64.8591 61.3958 65.1429 61.5805 65.5613C61.732 65.9044 61.7686 66.2546 61.6905 66.6121C61.6149 66.9685 61.4361 67.3021 61.1541 67.6129C60.8721 67.9237 60.4985 68.1819 60.0333 68.3873C59.4226 68.6569 58.8586 68.7476 58.3413 68.6592C57.8241 68.5709 57.3997 68.2955 57.0682 67.8332L57.8451 67.2293C58.0705 67.5149 58.3345 67.6871 58.6369 67.7461C58.942 67.804 59.2829 67.7497 59.6597 67.5833C60.0885 67.394 60.3888 67.1527 60.5606 66.8595C60.7338 66.5625 60.7636 66.2854 60.65 66.0281C60.5582 65.8202 60.4085 65.6782 60.201 65.6021C59.9924 65.5234 59.7218 65.5156 59.3894 65.5785L58.2882 65.7853C57.6824 65.8974 57.1907 65.8739 56.8129 65.7146C56.4366 65.5516 56.1572 65.2635 55.9747 64.8503C55.8256 64.5124 55.7885 64.1717 55.8634 63.828C55.941 63.4832 56.1121 63.1639 56.3767 62.87C56.644 62.575 56.9881 62.3345 57.4091 62.1486C58.0016 61.887 58.5242 61.8115 58.9768 61.9222C59.432 62.0318 59.8252 62.2681 60.1563 62.6312ZM63.0316 62.6101L64.6221 66.2121L63.7021 66.6183L60.1769 58.6346L61.0969 58.2284L62.3913 61.1599L62.4693 61.1255C62.473 60.7543 62.5751 60.4157 62.7755 60.1099C62.9773 59.8003 63.3134 59.5416 63.7837 59.3339C64.1918 59.1538 64.5852 59.0778 64.9642 59.1062C65.342 59.1319 65.6894 59.2751 66.0063 59.5357C66.3248 59.7927 66.5976 60.1784 66.8248 60.693L68.5047 64.4977L67.5847 64.9039L65.9323 61.1616C65.7223 60.686 65.4365 60.3727 65.0749 60.2219C64.7147 60.0673 64.3176 60.0858 63.8836 60.2774C63.5821 60.4105 63.3399 60.5935 63.1571 60.8264C62.9768 61.0582 62.8717 61.3266 62.8419 61.6318C62.8146 61.9357 62.8778 62.2618 63.0316 62.6101ZM67.5826 55.3647L71.1078 63.3483L70.1878 63.7545L66.6626 55.7709L67.5826 55.3647ZM72.7928 62.6043L70.1489 56.6165L71.0689 56.2103L73.7128 62.198L72.7928 62.6043ZM70.1761 55.412C69.9968 55.4912 69.8152 55.4984 69.6313 55.4336C69.45 55.3677 69.3215 55.249 69.2458 55.0775C69.17 54.906 69.1689 54.731 69.2423 54.5526C69.3183 54.3731 69.446 54.2438 69.6253 54.1646C69.8046 54.0854 69.9849 54.0788 70.1662 54.1447C70.35 54.2095 70.4799 54.3276 70.5556 54.4991C70.6313 54.6707 70.6312 54.8462 70.5552 55.0257C70.4818 55.2041 70.3554 55.3329 70.1761 55.412ZM77.5874 54.9346L76.8642 55.5334C76.7514 55.4186 76.6157 55.3186 76.4569 55.2334C76.2997 55.1445 76.1163 55.095 75.9069 55.085C75.6975 55.0749 75.459 55.129 75.1913 55.2472C74.8249 55.409 74.5568 55.6283 74.3871 55.9051C74.2189 56.1781 74.1915 56.4433 74.3051 56.7006C74.4061 56.9293 74.569 57.0732 74.7939 57.1323C75.0187 57.1914 75.3274 57.1871 75.7198 57.1194L76.705 56.9452C77.2978 56.8388 77.7845 56.8615 78.1652 57.0132C78.5447 57.1624 78.8268 57.4462 79.0116 57.8646C79.1631 58.2077 79.1997 58.5579 79.1215 58.9154C79.046 59.2718 78.8672 59.6054 78.5852 59.9162C78.3032 60.2271 77.9296 60.4852 77.4644 60.6906C76.8537 60.9603 76.2897 61.0509 75.7724 60.9625C75.2552 60.8742 74.8308 60.5988 74.4993 60.1365L75.2761 59.5326C75.5016 59.8182 75.7655 59.9904 76.068 60.0494C76.373 60.1073 76.714 60.053 77.0908 59.8866C77.5196 59.6973 77.8199 59.456 77.9917 59.1628C78.1649 58.8658 78.1947 58.5887 78.0811 58.3314C77.9893 58.1235 77.8396 57.9815 77.6321 57.9054C77.4235 57.8267 77.1529 57.8189 76.8205 57.8818L75.7192 58.0886C75.1135 58.2008 74.6218 58.1772 74.244 58.0179C73.8677 57.8549 73.5883 57.5668 73.4058 57.1536C73.2566 56.8157 73.2195 56.475 73.2945 56.1313C73.3721 55.7865 73.5432 55.4672 73.8078 55.1733C74.075 54.8783 74.4192 54.6379 74.8402 54.452C75.4327 54.1903 75.9553 54.1149 76.4079 54.2256C76.8631 54.3351 77.2563 54.5715 77.5874 54.9346ZM81.0933 51.7841L81.4376 52.5637L78.3345 53.9339L77.9903 53.1542L81.0933 51.7841ZM78.2613 51.3203L79.1812 50.9141L81.7012 56.6211C81.8159 56.881 81.9397 57.0593 82.0724 57.156C82.2066 57.2489 82.3433 57.291 82.4823 57.2824C82.6228 57.2701 82.7606 57.2341 82.8958 57.1744C82.9971 57.1296 83.078 57.0877 83.1384 57.0486C83.1976 57.007 83.245 56.9736 83.2805 56.9486L83.8326 57.6924C83.7805 57.7433 83.7038 57.8052 83.6024 57.8779C83.5021 57.9532 83.3662 58.0288 83.1947 58.1045C82.9348 58.2193 82.6554 58.2758 82.3566 58.2743C82.0604 58.2715 81.7799 58.1919 81.5152 58.0355C81.2531 57.878 81.0451 57.6251 80.8914 57.2768L78.2613 51.3203Z" fill="black"/>
</svg>
