<svg width="112" height="109" viewBox="0 0 112 109" fill="none" xmlns="http://www.w3.org/2000/svg">
<path d="M40.6531 11.1607C41.4151 6.91709 42.7019 1.96338 46.7316 0.391041C50.7612 -1.1813 55.7898 2.21698 57.3306 6.49442C58.8714 10.7719 58.1264 15.4889 57.5338 20.0199C56.9412 24.5509 56.5687 29.3863 58.7698 33.3594C62.2915 39.7164 70.808 41.2549 78.0377 40.4434C85.2674 39.6319 92.4802 37.248 99.6422 38.516C106.804 39.784 113.712 46.8849 111.189 53.7322C108.836 60.1061 100.54 61.5093 93.7331 61.577C86.9267 61.6446 78.8166 62.0842 75.3287 67.917C72.7551 72.1945 73.9234 77.7399 75.9721 82.2879C78.0208 86.8358 80.8822 91.1471 81.661 96.0839C82.4399 101.021 80.2388 106.972 75.3795 108.172C69.7921 109.576 64.882 104.098 62.6809 98.7721C60.4798 93.4464 59.1084 87.2754 54.4015 83.9447C48.5771 79.8364 40.3823 82.2541 34.3208 85.9736C28.2594 89.6931 22.8413 94.9342 15.8994 96.608C8.95754 98.2818 -0.100742 94.1734 0.000846941 87.0556C0.102435 80.7493 6.77341 76.9115 12.6994 74.5614C18.6254 72.2114 25.4487 69.1681 26.5831 62.9633C27.8022 56.3189 21.6561 50.858 16.255 46.8004C10.8539 42.7427 4.92789 36.8253 6.77341 30.3162C8.73746 23.4351 18.6254 21.8627 24.7038 25.7851C28.9874 28.5748 31.5948 33.1734 34.1007 37.4171C39.4679 32.1252 39.3325 18.6335 40.6531 11.1607Z" fill="#FF9D68"/>
<path d="M73.0025 101.203L73.0007 101.203C70.7316 101.77 68.5683 100.961 66.6979 99.3886C64.8242 97.8136 63.2938 95.5082 62.3438 93.2213C61.9456 92.2629 61.5788 91.2738 61.2069 90.2711C61.1285 90.0599 61.0499 89.848 60.9707 89.6357C60.5179 88.421 60.0484 87.1967 59.5066 86.024C58.4234 83.6793 57.0344 81.5011 54.8526 79.9652L54.852 79.9648C52.1427 78.0635 48.9038 77.6899 45.6956 78.1918C42.4899 78.6934 39.2777 80.073 36.5596 81.7324C35.2051 82.5593 33.8896 83.4689 32.5897 84.3851C32.3361 84.5639 32.0832 84.7428 31.8307 84.9214C30.7854 85.6609 29.747 86.3955 28.6921 87.0945C26.0741 88.829 23.3984 90.3128 20.4123 91.0291C17.4677 91.7354 14.0546 91.2214 11.3966 89.7739C8.74104 88.3277 6.91753 86.0016 6.95883 83.1099C7.00079 80.5285 8.38938 78.4198 10.4667 76.6773C12.5479 74.9314 15.2755 73.5936 17.8769 72.5673C20.4955 71.5341 23.3641 70.3298 25.7059 68.6825C28.0529 67.0315 29.9217 64.8995 30.4551 61.9976C31.0285 58.8881 29.8588 56.0871 27.9913 53.6483C26.1269 51.2137 23.5281 49.0869 21.1343 47.2978C18.7621 45.5248 16.3076 43.3686 14.6494 40.9699C12.9938 38.5752 12.1674 35.9947 12.9284 33.324C13.7327 30.5215 16.168 28.7566 19.1246 28.1112C22.0836 27.4653 25.4778 27.9668 28.046 29.6153C31.591 31.9125 33.81 35.656 35.9675 39.2958C36.0447 39.426 36.1219 39.5561 36.199 39.686L36.5177 40.223L36.9635 39.7857C38.2222 38.551 39.1366 36.8612 39.8245 34.9537C40.5134 33.0434 40.9857 30.8848 41.3426 28.6852C41.6997 26.4847 41.9438 24.2265 42.1707 22.1186L42.1757 22.0723C42.4015 19.9751 42.6102 18.0363 42.8964 16.425C43.232 14.5653 43.6761 12.5963 44.4612 10.929C45.244 9.26644 46.3427 7.95143 47.966 7.32129C49.5642 6.70089 51.4053 7.04596 53.0462 8.03856C54.6857 9.03025 56.0598 10.6329 56.6997 12.4004C57.9459 15.8423 57.4426 19.6339 56.9357 23.4529C56.9085 23.6578 56.8812 23.8629 56.8543 24.068C56.3319 28.0419 55.9705 32.4514 58.0049 36.1048C59.6404 39.0419 62.4243 40.8418 65.5774 41.8153C68.7278 42.788 72.279 42.9476 75.5243 42.5851C77.4626 42.3687 79.4267 42.0211 81.3701 41.6773C82.6317 41.454 83.8846 41.2323 85.116 41.0491C88.2827 40.5777 91.3988 40.3411 94.4879 40.8852C97.5372 41.4224 100.545 43.2012 102.512 45.5681C104.477 47.932 105.36 50.8184 104.324 53.6177C103.352 56.2366 101.145 57.8685 98.3771 58.8576C95.6052 59.8479 92.3292 60.1697 89.3431 60.1992C86.3346 60.2289 82.9838 60.3395 79.9901 61.1011C76.991 61.864 74.2884 63.2961 72.6549 66.0135C70.2472 69.9955 71.3713 75.0781 73.1971 79.1104C73.6551 80.122 74.1575 81.1181 74.6603 82.1043C74.7205 82.2225 74.7808 82.3405 74.841 82.4584C75.2844 83.3271 75.7242 84.1886 76.137 85.0583C77.0743 87.0331 77.8562 89.0177 78.1897 91.1213C78.5193 93.1997 78.2167 95.4941 77.3231 97.3848C76.4309 99.2723 74.9719 100.719 73.0025 101.203Z" fill="#FF9D68" stroke="black" stroke-width="0.98"/>
</svg>
